<svg xmlns="http://www.w3.org/2000/svg" xmlns:xlink="http://www.w3.org/1999/xlink" width="256" zoomAndPan="magnify" viewBox="0 0 192 191.999996" height="256" preserveAspectRatio="xMidYMid meet" version="1.0"><defs><clipPath id="9f116d99d6"><path d="M 6.296875 6.296875 L 185.703125 6.296875 L 185.703125 185.703125 L 6.296875 185.703125 Z M 6.296875 6.296875 " clip-rule="nonzero"/></clipPath><clipPath id="2e3fe2b0a8"><path d="M 96 6.296875 C 46.457031 6.296875 6.296875 46.457031 6.296875 96 C 6.296875 145.542969 46.457031 185.703125 96 185.703125 C 145.542969 185.703125 185.703125 145.542969 185.703125 96 C 185.703125 46.457031 145.542969 6.296875 96 6.296875 Z M 96 6.296875 " clip-rule="nonzero"/></clipPath><clipPath id="1cd50c2dd4"><path d="M 67.652344 140.816406 L 83.703125 140.816406 L 83.703125 156.609375 L 67.652344 156.609375 Z M 67.652344 140.816406 " clip-rule="nonzero"/></clipPath><clipPath id="3ecc91731a"><path d="M 109.476562 140.816406 L 125.527344 140.816406 L 125.527344 156.609375 L 109.476562 156.609375 Z M 109.476562 140.816406 " clip-rule="nonzero"/></clipPath><clipPath id="fac5c719f5"><path d="M 44.699219 35.109375 L 67 35.109375 L 67 69 L 44.699219 69 Z M 44.699219 35.109375 " clip-rule="nonzero"/></clipPath><clipPath id="27344eeede"><path d="M 62.917969 71.847656 L 147.296875 71.847656 L 147.296875 101.246094 L 62.917969 101.246094 Z M 62.917969 71.847656 " clip-rule="nonzero"/></clipPath></defs><g clip-path="url(#9f116d99d6)"><g clip-path="url(#2e3fe2b0a8)"><path fill="#880d1e" d="M 6.296875 6.296875 L 185.703125 6.296875 L 185.703125 185.703125 L 6.296875 185.703125 Z M 6.296875 6.296875 " fill-opacity="1" fill-rule="nonzero"/></g></g><path fill="#f49cbb" d="M 133.074219 134.226562 L 68.109375 134.175781 C 65.65625 134.175781 63.660156 132.179688 63.660156 129.726562 C 63.660156 127.269531 65.65625 125.273438 68.113281 125.273438 C 69.585938 125.273438 70.78125 124.078125 70.78125 122.601562 C 70.78125 121.128906 69.585938 119.933594 68.113281 119.933594 C 62.710938 119.933594 58.320312 124.324219 58.320312 129.726562 C 58.320312 135.121094 62.710938 139.511719 68.105469 139.515625 L 133.070312 139.566406 C 134.542969 139.566406 135.738281 138.371094 135.738281 136.898438 C 135.742188 135.425781 134.546875 134.226562 133.074219 134.226562 " fill-opacity="1" fill-rule="nonzero"/><g clip-path="url(#1cd50c2dd4)"><path fill="#f49cbb" d="M 75.671875 156.863281 C 71.257812 156.863281 67.664062 153.269531 67.664062 148.855469 C 67.664062 144.4375 71.257812 140.847656 75.671875 140.847656 C 80.089844 140.847656 83.683594 144.4375 83.683594 148.855469 C 83.683594 153.269531 80.089844 156.863281 75.671875 156.863281 " fill-opacity="1" fill-rule="nonzero"/></g><g clip-path="url(#3ecc91731a)"><path fill="#f49cbb" d="M 117.496094 156.863281 C 113.082031 156.863281 109.488281 153.269531 109.488281 148.855469 C 109.488281 144.4375 113.082031 140.847656 117.496094 140.847656 C 121.914062 140.847656 125.507812 144.4375 125.507812 148.855469 C 125.507812 153.269531 121.914062 156.863281 117.496094 156.863281 " fill-opacity="1" fill-rule="nonzero"/></g><g clip-path="url(#fac5c719f5)"><path fill="#f49cbb" d="M 63.878906 68.320312 C 64.011719 68.320312 64.144531 68.308594 64.28125 68.289062 C 65.738281 68.070312 66.742188 66.710938 66.523438 65.25 L 64.511719 51.902344 C 64.425781 51.339844 64.160156 50.816406 63.757812 50.414062 L 49.515625 36.175781 C 48.472656 35.132812 46.785156 35.132812 45.742188 36.175781 C 44.699219 37.21875 44.699219 38.910156 45.742188 39.953125 L 59.363281 53.570312 L 61.242188 66.046875 C 61.441406 67.371094 62.582031 68.320312 63.878906 68.320312 " fill-opacity="1" fill-rule="nonzero"/></g><path fill="#f49cbb" d="M 70.398438 117.265625 L 123.503906 117.265625 C 124.421875 117.265625 125.273438 116.792969 125.761719 116.019531 L 132.835938 104.804688 L 67.757812 104.804688 L 69.519531 116.507812 C 69.585938 116.941406 69.960938 117.265625 70.398438 117.265625 " fill-opacity="1" fill-rule="nonzero"/><path fill="#f49cbb" d="M 106.671875 73.484375 C 111.546875 69.835938 119.722656 62.527344 119.722656 54.527344 C 119.722656 53.398438 119.144531 52.191406 118.347656 51.652344 C 117.535156 51.101562 117.320312 49.996094 117.871094 49.179688 C 118.421875 48.367188 119.527344 48.152344 120.34375 48.703125 C 122.101562 49.890625 123.28125 52.230469 123.28125 54.527344 C 123.28125 64.078125 114.210938 72.289062 108.800781 76.335938 C 108.484375 76.574219 108.109375 76.6875 107.738281 76.6875 C 107.195312 76.6875 106.660156 76.441406 106.3125 75.976562 C 105.722656 75.1875 105.882812 74.070312 106.671875 73.484375 Z M 103.703125 85.882812 C 108.042969 83.5 128.621094 71.320312 128.621094 54.527344 C 128.621094 47.902344 123.230469 42.511719 116.609375 42.511719 C 111.636719 42.511719 107.121094 45.648438 105.371094 50.3125 C 105.109375 51.007812 104.445312 51.46875 103.703125 51.46875 C 102.960938 51.46875 102.296875 51.007812 102.039062 50.3125 C 100.285156 45.648438 95.769531 42.511719 90.800781 42.511719 C 84.175781 42.511719 78.789062 47.902344 78.789062 54.527344 C 78.789062 71.34375 99.359375 83.503906 103.703125 85.882812 " fill-opacity="1" fill-rule="nonzero"/><g clip-path="url(#27344eeede)"><path fill="#f49cbb" d="M 90.355469 87.898438 L 71.667969 87.898438 C 70.683594 87.898438 69.886719 87.101562 69.886719 86.117188 C 69.886719 85.136719 70.683594 84.339844 71.667969 84.339844 L 90.355469 84.339844 C 91.339844 84.339844 92.136719 85.136719 92.136719 86.117188 C 92.136719 87.101562 91.339844 87.898438 90.355469 87.898438 Z M 146.367188 76.003906 C 144.976562 73.398438 142.152344 71.882812 139.199219 71.878906 L 125.910156 71.878906 C 117.984375 82.632812 105.273438 89.101562 104.5 89.488281 C 104.25 89.613281 103.976562 89.675781 103.703125 89.675781 C 103.429688 89.675781 103.160156 89.613281 102.90625 89.488281 C 102.132812 89.101562 89.425781 82.632812 81.5 71.878906 L 63.828125 71.878906 C 63.285156 71.878906 62.867188 72.363281 62.949219 72.902344 L 67.21875 101.246094 L 135.082031 101.246094 L 143.503906 87.898438 L 117.148438 87.898438 C 116.261719 87.898438 115.441406 87.292969 115.296875 86.417969 C 115.117188 85.300781 115.972656 84.339844 117.050781 84.339844 L 145.75 84.339844 L 146.082031 83.816406 C 147.597656 81.414062 147.699219 78.5 146.367188 76.003906 " fill-opacity="1" fill-rule="nonzero"/></g></svg>